<?xml version="1.0" encoding="utf-8"?>
<!-- Generator: Adobe Illustrator 15.0.0, SVG Export Plug-In  -->
<!DOCTYPE svg PUBLIC "-//W3C//DTD SVG 1.1//EN" "http://www.w3.org/Graphics/SVG/1.1/DTD/svg11.dtd" [
	<!ENTITY ns_flows "http://ns.adobe.com/Flows/1.0/">
]>
<svg version="1.1"
	 xmlns="http://www.w3.org/2000/svg" xmlns:xlink="http://www.w3.org/1999/xlink" xmlns:a="http://ns.adobe.com/AdobeSVGViewerExtensions/3.0/"
	 x="0px" y="0px" width="100px" height="100px" viewBox="-19.646 -44.047 100 100"
	 overflow="visible" enable-background="new -19.646 -44.047 100 100" xml:space="preserve">
<defs>
</defs>
<path fill="#FFFFFF" d="M0,9.903c0,0,0.797-0.665,2.331-1.629c1.526-0.977,3.795-2.242,6.656-3.49
	c1.433-0.614,3.01-1.234,4.715-1.791c1.699-0.575,3.528-1.07,5.438-1.521c0.96-0.201,1.934-0.43,2.935-0.583
	c0.499-0.085,1.001-0.17,1.506-0.255c0.506-0.076,1.018-0.129,1.531-0.195C27.162,0.165,29.267,0.065,31.37,0
	c1.053,0.016,2.105,0.008,3.152,0.055c1.049,0.063,2.094,0.097,3.123,0.226c1.031,0.112,2.056,0.205,3.055,0.394
	c1.003,0.164,1.994,0.312,2.953,0.55c0.962,0.22,1.911,0.406,2.818,0.691c0.908,0.272,1.809,0.487,2.652,0.808
	c0.848,0.309,1.682,0.573,2.465,0.892c0.777,0.331,1.529,0.651,2.249,0.958c1.417,0.665,2.693,1.313,3.79,1.948
	c1.091,0.643,2.039,1.193,2.779,1.719c0.75,0.51,1.316,0.941,1.709,1.221c0.387,0.289,0.593,0.443,0.593,0.443
	s-0.246-0.08-0.708-0.229c-0.456-0.159-1.135-0.371-1.969-0.681c-0.834-0.313-1.895-0.581-3.057-0.987
	c-0.578-0.205-1.22-0.359-1.885-0.543c-0.668-0.174-1.348-0.41-2.084-0.578c-0.729-0.18-1.488-0.367-2.273-0.562
	c-0.787-0.186-1.607-0.34-2.443-0.519c-0.831-0.193-1.703-0.315-2.584-0.474c-0.88-0.163-1.786-0.283-2.705-0.404
	c-1.839-0.257-3.747-0.421-5.687-0.548c-1.938-0.118-3.913-0.158-5.888-0.143c-1.975,0.04-3.951,0.119-5.893,0.287
	c-1.945,0.143-3.852,0.392-5.701,0.634c-1.842,0.284-3.63,0.562-5.313,0.909C12.83,6.389,11.24,6.75,9.771,7.1
	C8.304,7.456,6.957,7.801,5.766,8.129c-1.184,0.348-2.23,0.632-3.08,0.904c-0.85,0.271-1.528,0.474-1.982,0.633
	C0.244,9.821,0,9.903,0,9.903"/>
</svg>
